<svg xmlns="http://www.w3.org/2000/svg" width="32" height="32" viewBox="0 0 16 16" shape-rendering="crispEdges"><path fill="#17303e" d="M3 2h10v1h1v10h-1v1H3v-1H2V3h1Z"/><path fill="#8d73b8" d="M3 3h10v10H3Z"/><path fill="#c7abe3" d="M3 3h10v2H3ZM3 5h2v8H3Z"/><path fill="#66548d" d="M11 5h2v8H5v-2h6Z"/><path fill="#fff1b8" d="M7 4h2v2h2v1h1v2h-2v2H9v1H7v-2H5V9H4V7h2V5h1Z"/><path fill="#ffce58" d="M7 6h2v1h1v2H9v1H7V9H6V7h1Z"/><path fill="#54a9ad" d="M7 7h2v2H7Z"/><path fill="#fff9e8" d="M4 4h1v1H4ZM11 11h1v1h-1Z"/></svg>
