<svg xmlns="http://www.w3.org/2000/svg" width="64" height="64" viewBox="0 0 64 64" shape-rendering="crispEdges"><g transform="scale(2)"><rect x="0" y="0" width="32" height="32" fill="#db682f" opacity="1"/><rect x="2" y="3" width="5" height="1" fill="#ffd064" opacity="1"/><rect x="3" y="4" width="3" height="1" fill="#ee963c" opacity="1"/><rect x="11" y="14" width="5" height="1" fill="#ffd064" opacity="1"/><rect x="12" y="15" width="3" height="1" fill="#ee963c" opacity="1"/><rect x="20" y="25" width="5" height="1" fill="#ffd064" opacity="1"/><rect x="21" y="26" width="3" height="1" fill="#ee963c" opacity="1"/><rect x="2" y="7" width="5" height="1" fill="#ffd064" opacity="1"/><rect x="3" y="8" width="3" height="1" fill="#ee963c" opacity="1"/><rect x="11" y="18" width="5" height="1" fill="#ffd064" opacity="1"/><rect x="12" y="19" width="3" height="1" fill="#ee963c" opacity="1"/><rect x="20" y="0" width="5" height="1" fill="#ffd064" opacity="1"/><rect x="21" y="1" width="3" height="1" fill="#ee963c" opacity="1"/><rect x="2" y="11" width="5" height="1" fill="#ffd064" opacity="1"/><rect x="3" y="12" width="3" height="1" fill="#ee963c" opacity="1"/><rect x="11" y="22" width="5" height="1" fill="#ffd064" opacity="1"/><rect x="12" y="23" width="3" height="1" fill="#ee963c" opacity="1"/><rect x="20" y="4" width="5" height="1" fill="#ffd064" opacity="1"/><rect x="21" y="5" width="3" height="1" fill="#ee963c" opacity="1"/></g></svg>
