<svg xmlns="http://www.w3.org/2000/svg" width="96" height="112" viewBox="0 0 96 112" shape-rendering="crispEdges"><defs><clipPath id="ramp-sides"><polygon points="0,24 48,68 48,110 0,86"/><polygon points="48,68 96,44 96,86 48,110"/></clipPath></defs><polygon points="0,24 48,68 48,110 0,86" fill="#a1774e"/><polygon points="48,68 96,44 96,86 48,110" fill="#79563d"/><g clip-path="url(#ramp-sides)"><path d="M0 24L48 48L96 24v5L48 53L0 29z" fill="#3f7341"/><path d="M0 29L48 53L96 29v4L48 57L0 33z" fill="#645738"/><path d="M4 35l13 6h6l9 5h7 M55 53l12-6h7l17-9" fill="none" stroke="#c09560" stroke-width="2" opacity=".5"/><path d="M12 31v10h4v7h5 M32 42v12h-4v10h5 M74 38v9h-5v14h-4 M86 32v11h4v5" fill="none" stroke="#cfac71" stroke-width="2"/><path d="M4 29v5h6v4h4 M24 39v5h6v3h4 M59 47v5h6v-8h4 M81 35v6h5v-8" fill="none" stroke="#65a044" stroke-width="4"/><path d="M0 24L48 68L96 44" fill="none" stroke="#3f7341" stroke-width="4"/></g><defs><clipPath id="ramp-top"><polygon points="48,0 96,44 48,68 0,24"/></clipPath></defs><g clip-path="url(#ramp-top)"><g transform="matrix(1 0.20833333333333334 0 1.4166666666666667 0 -10)"><polygon points="48,0 96,24 48,48 0,24" fill="#84b94d"/><path d="M41 1h12v2h4v2h-4v2h-12v-2h-4v-2h4z" fill="#a5ca61" opacity="0.6"/><path d="M7 22h4v2h4v1h-4v2h-4v-2h-4v-1h4z" fill="#699d49" opacity="0.7"/><path d="M84 21h4v2h4v2h-4v2h-4v-2h-4v-2h4z" fill="#a5ca61" opacity="0.5"/><path d="M43 42h10v2h4v2h-4v2h-10v-2h-4v-2h4z" fill="#568647" opacity="0.7"/><polygon points="38,5 86,29 58,43 10,19" fill="#b69a60"/><path d="M29 10L77 34 M19 15L67 39" fill="none" stroke="#d5bb7b" stroke-width="2" opacity=".6"/><path d="M40 18h1v2h4v-1h-4v2h-1v-2h-4v--1h4z" fill="#947a4f" opacity="0.5"/><path d="M56 29h-1v2h4v-1h-4v2h--1v-2h-4v--1h4z" fill="#e2c78c" opacity="0.7"/><path d="M24 23h4v2h-4z M65 20h3v2h-3z" fill="#826b48" opacity=".6"/><path d="M0 24L48 0L96 24" fill="none" stroke="#b5d66a" stroke-width="2" opacity=".4"/><path d="M0 24L48 48L96 24" fill="none" stroke="#568740" stroke-width="1" opacity=".65"/></g></g></svg>
