<svg xmlns="http://www.w3.org/2000/svg" width="32" height="24" viewBox="0 0 32 24" shape-rendering="crispEdges"><path d="M3 21h27v2H3z" fill="#557d43" opacity=".5"/><path d="M9 21V10 M23 21V7 M15 22v-6" stroke="#507a41" stroke-width="2"/><path d="M7 19H4v-3h4 M22 17h5v-3h-3" fill="#91b956"/><path d="M7 7h4v3h3v4h-3v3H7v-3H4v-4h3z M21 3h4v3h3v4h-3v3h-4v-3h-3V6h3z" fill="#f3edd0"/><path d="M8 10h3v3H8z M22 6h3v3h-3z" fill="#e9bb62"/><path d="M13 13h5v5h-5z" fill="#d7c6dd"/><path d="M14 14h2v2h-2z" fill="#fff0be"/></svg>
