<svg xmlns="http://www.w3.org/2000/svg" width="96" height="92" viewBox="0 0 96 92" shape-rendering="crispEdges"><defs><clipPath id="sides"><polygon points="0,24 48,48 48,90 0,66"/><polygon points="48,48 96,24 96,66 48,90"/></clipPath><clipPath id="top"><polygon points="48,0 96,24 48,48 0,24"/></clipPath></defs><polygon points="0,24 48,48 48,90 0,66" fill="#0e71b5"/><polygon points="48,48 96,24 96,66 48,90" fill="#0a5b9b"/><g clip-path="url(#sides)"><rect x="13" y="25" width="7" height="3" fill="#0a4f86" opacity=".34"/><rect x="61" y="25" width="7" height="3" fill="#0a4f86" opacity=".34"/><rect x="73" y="25" width="11" height="3" fill="#0a4f86" opacity=".34"/><rect x="0" y="32" width="8" height="2" fill="#0a4f86" opacity=".34"/><rect x="13" y="32" width="6" height="2" fill="#50c9ee" opacity=".34"/><rect x="37" y="32" width="6" height="2" fill="#50c9ee" opacity=".34"/><rect x="73" y="32" width="10" height="2" fill="#0a4f86" opacity=".34"/><rect x="0" y="39" width="7" height="3" fill="#0a4f86" opacity=".34"/><rect x="13" y="39" width="7" height="3" fill="#0a4f86" opacity=".34"/><rect x="25" y="46" width="6" height="2" fill="#50c9ee" opacity=".34"/><rect x="37" y="46" width="6" height="2" fill="#50c9ee" opacity=".34"/><rect x="72" y="46" width="6" height="2" fill="#50c9ee" opacity=".34"/><rect x="36" y="53" width="11" height="3" fill="#0a4f86" opacity=".34"/><rect x="61" y="53" width="7" height="3" fill="#0a4f86" opacity=".34"/><rect x="73" y="53" width="9" height="3" fill="#50c9ee" opacity=".34"/><rect x="84" y="53" width="9" height="3" fill="#50c9ee" opacity=".34"/><rect x="24" y="60" width="6" height="2" fill="#50c9ee" opacity=".34"/><rect x="48" y="60" width="8" height="2" fill="#0a4f86" opacity=".34"/><rect x="85" y="60" width="6" height="2" fill="#50c9ee" opacity=".34"/><rect x="1" y="67" width="11" height="3" fill="#0a4f86" opacity=".34"/><rect x="12" y="67" width="7" height="3" fill="#0a4f86" opacity=".34"/><rect x="25" y="74" width="6" height="2" fill="#50c9ee" opacity=".34"/><rect x="36" y="74" width="6" height="2" fill="#50c9ee" opacity=".34"/><rect x="48" y="74" width="8" height="2" fill="#0a4f86" opacity=".34"/><rect x="60" y="74" width="6" height="2" fill="#50c9ee" opacity=".34"/><rect x="73" y="74" width="10" height="2" fill="#0a4f86" opacity=".34"/><rect x="0" y="81" width="7" height="3" fill="#0a4f86" opacity=".34"/><rect x="36" y="81" width="11" height="3" fill="#0a4f86" opacity=".34"/><rect x="48" y="81" width="7" height="3" fill="#0a4f86" opacity=".34"/><rect x="73" y="81" width="9" height="3" fill="#50c9ee" opacity=".34"/><rect x="84" y="81" width="7" height="3" fill="#0a4f86" opacity=".34"/><rect x="1" y="88" width="6" height="2" fill="#50c9ee" opacity=".34"/><rect x="61" y="88" width="8" height="2" fill="#0a4f86" opacity=".34"/><rect x="72" y="88" width="6" height="2" fill="#50c9ee" opacity=".34"/><rect x="84" y="88" width="6" height="2" fill="#50c9ee" opacity=".34"/></g><polygon points="48,0 96,24 48,48 0,24" fill="#158bd0"/><g clip-path="url(#top)"><rect x="6" y="4" width="3" height="2" fill="#0872b3" opacity=".8"/><rect x="13" y="4" width="3" height="2" fill="#188fcf" opacity=".8"/><rect x="29" y="4" width="3" height="2" fill="#188fcf" opacity=".8"/><rect x="37" y="4" width="3" height="2" fill="#188fcf" opacity=".8"/><rect x="46" y="4" width="3" height="2" fill="#0872b3" opacity=".8"/><rect x="52" y="4" width="3" height="2" fill="#50c9ee" opacity=".8"/><rect x="60" y="4" width="3" height="2" fill="#50c9ee" opacity=".8"/><rect x="68" y="4" width="3" height="2" fill="#50c9ee" opacity=".8"/><rect x="5" y="10" width="5" height="2" fill="#188fcf" opacity=".8"/><rect x="14" y="10" width="5" height="2" fill="#0872b3" opacity=".8"/><rect x="22" y="10" width="5" height="2" fill="#0872b3" opacity=".8"/><rect x="30" y="10" width="5" height="2" fill="#0872b3" opacity=".8"/><rect x="46" y="10" width="5" height="2" fill="#0872b3" opacity=".8"/><rect x="60" y="10" width="5" height="2" fill="#50c9ee" opacity=".8"/><rect x="69" y="10" width="5" height="2" fill="#188fcf" opacity=".8"/><rect x="78" y="10" width="5" height="2" fill="#0872b3" opacity=".8"/><rect x="85" y="10" width="5" height="2" fill="#188fcf" opacity=".8"/><rect x="13" y="16" width="3" height="2" fill="#188fcf" opacity=".8"/><rect x="21" y="16" width="3" height="2" fill="#188fcf" opacity=".8"/><rect x="30" y="16" width="3" height="2" fill="#0872b3" opacity=".8"/><rect x="38" y="16" width="3" height="2" fill="#0872b3" opacity=".8"/><rect x="45" y="16" width="3" height="2" fill="#188fcf" opacity=".8"/><rect x="62" y="16" width="3" height="2" fill="#0872b3" opacity=".8"/><rect x="70" y="16" width="3" height="2" fill="#0872b3" opacity=".8"/><rect x="76" y="16" width="3" height="2" fill="#50c9ee" opacity=".8"/><rect x="12" y="22" width="5" height="2" fill="#50c9ee" opacity=".8"/><rect x="20" y="22" width="5" height="2" fill="#50c9ee" opacity=".8"/><rect x="28" y="22" width="5" height="2" fill="#50c9ee" opacity=".8"/><rect x="36" y="22" width="5" height="2" fill="#50c9ee" opacity=".8"/><rect x="45" y="22" width="5" height="2" fill="#188fcf" opacity=".8"/><rect x="53" y="22" width="5" height="2" fill="#188fcf" opacity=".8"/><rect x="69" y="22" width="5" height="2" fill="#188fcf" opacity=".8"/><rect x="85" y="22" width="5" height="2" fill="#188fcf" opacity=".8"/><rect x="93" y="22" width="5" height="2" fill="#188fcf" opacity=".8"/><rect x="4" y="28" width="3" height="2" fill="#50c9ee" opacity=".8"/><rect x="12" y="28" width="3" height="2" fill="#50c9ee" opacity=".8"/><rect x="21" y="28" width="3" height="2" fill="#188fcf" opacity=".8"/><rect x="61" y="28" width="3" height="2" fill="#188fcf" opacity=".8"/><rect x="78" y="28" width="3" height="2" fill="#0872b3" opacity=".8"/><rect x="85" y="28" width="3" height="2" fill="#188fcf" opacity=".8"/><rect x="93" y="28" width="3" height="2" fill="#188fcf" opacity=".8"/><rect x="14" y="34" width="5" height="2" fill="#0872b3" opacity=".8"/><rect x="21" y="34" width="5" height="2" fill="#188fcf" opacity=".8"/><rect x="29" y="34" width="5" height="2" fill="#188fcf" opacity=".8"/><rect x="37" y="34" width="5" height="2" fill="#188fcf" opacity=".8"/><rect x="46" y="34" width="5" height="2" fill="#0872b3" opacity=".8"/><rect x="61" y="34" width="5" height="2" fill="#188fcf" opacity=".8"/><rect x="69" y="34" width="5" height="2" fill="#188fcf" opacity=".8"/><rect x="77" y="34" width="5" height="2" fill="#188fcf" opacity=".8"/><rect x="84" y="34" width="5" height="2" fill="#50c9ee" opacity=".8"/><rect x="5" y="40" width="3" height="2" fill="#188fcf" opacity=".8"/><rect x="22" y="40" width="3" height="2" fill="#0872b3" opacity=".8"/><rect x="30" y="40" width="3" height="2" fill="#0872b3" opacity=".8"/><rect x="60" y="40" width="3" height="2" fill="#50c9ee" opacity=".8"/><rect x="86" y="40" width="3" height="2" fill="#0872b3" opacity=".8"/><rect x="93" y="40" width="3" height="2" fill="#188fcf" opacity=".8"/><rect x="28" y="46" width="5" height="2" fill="#50c9ee" opacity=".8"/><rect x="54" y="46" width="5" height="2" fill="#0872b3" opacity=".8"/><rect x="60" y="46" width="5" height="2" fill="#50c9ee" opacity=".8"/><path d="M2 23 L48 1 L94 23" fill="none" stroke="#50c9ee" stroke-width="2" opacity=".25"/></g><path d="M4 24 L20 32 M31 39 L47 47 M52 46 L68 38 M77 33 L92 25" stroke="#90e5f3" stroke-width="3" fill="none" opacity=".8"/><path d="M0 24 L48 48 L96 24 M48 48 L48 90" fill="none" stroke="#0a4f86" stroke-width="2" opacity=".55"/></svg>
