<svg xmlns="http://www.w3.org/2000/svg" width="96" height="68" viewBox="0 0 96 68" shape-rendering="crispEdges"><defs><clipPath id="ramp-top"><polygon points="48,20 96,24 48,48 0,44"/></clipPath></defs><g clip-path="url(#ramp-top)"><g transform="matrix(1 -0.20833333333333334 0 0.5833333333333334 0 30)"><polygon points="48,0 96,24 48,48 0,24" fill="#84b94d"/><path d="M41 1h12v2h4v2h-4v2h-12v-2h-4v-2h4z" fill="#a5ca61" opacity="0.6"/><path d="M7 22h4v2h4v1h-4v2h-4v-2h-4v-1h4z" fill="#699d49" opacity="0.7"/><path d="M84 21h4v2h4v2h-4v2h-4v-2h-4v-2h4z" fill="#a5ca61" opacity="0.5"/><path d="M43 42h10v2h4v2h-4v2h-10v-2h-4v-2h4z" fill="#568647" opacity="0.7"/><polygon points="38,5 86,29 58,43 10,19" fill="#b69a60"/><path d="M29 10L77 34 M19 15L67 39" fill="none" stroke="#d5bb7b" stroke-width="2" opacity=".6"/><path d="M40 18h1v2h4v-1h-4v2h-1v-2h-4v--1h4z" fill="#947a4f" opacity="0.5"/><path d="M56 29h-1v2h4v-1h-4v2h--1v-2h-4v--1h4z" fill="#e2c78c" opacity="0.7"/><path d="M24 23h4v2h-4z M65 20h3v2h-3z" fill="#826b48" opacity=".6"/><path d="M0 24L48 0L96 24" fill="none" stroke="#b5d66a" stroke-width="2" opacity=".4"/><path d="M0 24L48 48L96 24" fill="none" stroke="#568740" stroke-width="1" opacity=".65"/></g></g></svg>
